<svg xmlns="http://www.w3.org/2000/svg" viewBox="0 0 24 24" fill="currentColor">
  <path d="M6.763 10.036c0 .296.032.535.088.71.064.176.144.368.28.576.048.064.064.128.064.184 0 .08-.048.16-.152.24l-.504.336a.383.383 0 0 1-.208.072c-.08 0-.16-.04-.24-.112a2.47 2.47 0 0 1-.288-.376 6.18 6.18 0 0 1-.248-.472c-.625.736-1.409 1.104-2.353 1.104-.673 0-1.209-.192-1.601-.576-.392-.384-.592-.896-.592-1.536 0-.68.239-1.23.726-1.644.487-.415 1.133-.623 1.955-.623.272 0 .551.024.839.064.288.04.584.104.896.184v-.568c0-.576-.12-1.016-.352-1.312-.232-.288-.632-.432-1.193-.432-.272 0-.544.032-.824.104-.28.072-.56.168-.832.296-.12.056-.208.088-.256.104a.446.446 0 0 1-.12.024c-.104 0-.16-.072-.16-.216v-.344c0-.112.016-.192.056-.24.04-.048.112-.096.216-.144.272-.144.6-.264.984-.36.384-.096.793-.144 1.217-.144.928 0 1.614.208 2.06.624.437.416.663 1.048.663 1.896v2.496zm-3.251 1.218c.264 0 .536-.048.824-.144.288-.096.544-.272.761-.512.128-.152.224-.32.272-.512.048-.192.08-.424.08-.696v-.336a6.65 6.65 0 0 0-.728-.136 5.974 5.974 0 0 0-.744-.048c-.528 0-.912.104-1.169.32-.256.216-.384.52-.384.912 0 .368.096.648.288.832.2.192.48.32.8.32zm6.295.844c-.12 0-.2-.024-.256-.064-.056-.04-.104-.136-.144-.272L7.684 6.32a1.297 1.297 0 0 1-.072-.296c0-.12.056-.184.168-.184h.688c.128 0 .208.024.264.064.056.04.104.136.144.272l1.324 5.232 1.23-5.232c.032-.136.08-.232.136-.272.056-.04.144-.064.264-.064h.56c.136 0 .216.024.272.064.056.04.104.136.136.272l1.248 5.3 1.364-5.3c.04-.136.088-.232.144-.272.056-.04.136-.064.256-.064h.656c.112 0 .168.06.168.184 0 .04-.008.08-.024.128l-.032.152-1.833 5.54c-.04.137-.089.233-.144.273-.056.04-.136.064-.256.064h-.608c-.136 0-.216-.024-.272-.064-.056-.048-.104-.144-.136-.272L13.8 7.685l-1.23 4.388c-.04.137-.088.225-.144.273a.455.455 0 0 1-.272.064h-.608zm9.026.208c-.384 0-.768-.048-1.137-.136-.368-.096-.664-.2-.872-.32-.12-.064-.2-.136-.224-.2a.506.506 0 0 1-.04-.208v-.36c0-.144.056-.216.16-.216.04 0 .08.008.12.024.04.016.1.04.168.072.224.1.464.176.72.232.264.056.52.084.784.084.416 0 .736-.072.96-.216.224-.144.336-.352.336-.616 0-.184-.056-.336-.176-.464-.12-.128-.344-.248-.672-.36l-.96-.296c-.488-.152-.848-.376-1.073-.672-.224-.296-.336-.624-.336-.976 0-.28.064-.528.184-.744.12-.216.28-.4.48-.552.2-.144.424-.256.68-.328.256-.08.52-.112.8-.112.136 0 .28.008.416.024.144.016.28.04.416.072.128.032.248.064.36.104.112.04.2.08.264.12.088.048.152.104.192.168.04.064.056.144.056.256v.336c0 .144-.056.216-.16.216-.056 0-.144-.024-.264-.072a3.194 3.194 0 0 0-1.328-.272c-.376 0-.672.056-.88.176-.208.12-.312.312-.312.576 0 .184.064.344.2.472.136.128.376.256.728.368l.944.296c.48.152.832.368 1.04.64.208.28.312.592.312.944 0 .288-.056.544-.176.776-.12.232-.28.432-.496.6-.216.168-.464.296-.76.384-.296.088-.616.14-.96.14z"/>
  <path d="M21.193 17.448c-2.315 1.713-5.679 2.625-8.578 2.625-4.059 0-7.713-1.497-10.475-3.986-.217-.192-.024-.456.24-.304 2.984 1.728 6.666 2.769 10.475 2.769 2.568 0 5.39-.528 7.994-1.632.392-.168.72.256.344.528zM22.147 16.38c-.296-.384-1.969-.18-2.722-.092-.232.024-.264-.168-.056-.32 1.334-.944 3.526-.672 3.782-.352.256.32-.064 2.48-1.318 3.512-.192.16-.376.08-.288-.136.28-.7.912-2.228.602-2.612z"/>
</svg>
